<svg xmlns="http://www.w3.org/2000/svg" width="1.5rem" height="1.5rem" fill="none" viewBox="0 0 24 24" class="text-neutral-900"><path fill="currentColor" fill-rule="evenodd" d="M14.64 5.248a.748.748 0 0 1 1.061.008l4.088 4.168a.756.756 0 0 1-.535 1.282H6.83a.752.752 0 0 1-.75-.753c0-.416.336-.753.75-.753h10.632l-2.83-2.887a.756.756 0 0 1 .008-1.065ZM9.368 18.815a.748.748 0 0 1-1.061-.009L4.22 14.638a.755.755 0 0 1 .535-1.282h12.423c.414 0 .75.338.75.754a.752.752 0 0 1-.75.753H6.546l2.83 2.886a.755.755 0 0 1-.008 1.066Z" clip-rule="evenodd"></path></svg>