<svg xmlns="http://www.w3.org/2000/svg" width="30px" height="30px" fill="none" viewBox="0 0 24 24" class="text-neutral-500" style="color: inherit;"><path fill="currentColor" d="M12 13.699a1.699 1.699 0 1 0 0-3.398 1.699 1.699 0 0 0 0 3.398Z"></path><path fill="currentColor" fill-rule="evenodd" d="M14.171 7.707H9.83a2.14 2.14 0 0 0-2.12 2.12v4.344c0 1.154.966 2.12 2.12 2.12h4.342a2.14 2.14 0 0 0 2.12-2.12V9.83c.001-1.142-.966-2.122-2.12-2.122ZM12 14.779c-1.505 0-2.779-1.264-2.779-2.779 0-1.5 1.29-2.779 2.779-2.779 1.497 0 2.779 1.267 2.779 2.779-.003 1.512-1.266 2.776-2.779 2.779Zm2.786-4.872a.686.686 0 0 1-.675-.675c0-.36.316-.675.675-.675.367 0 .675.31.675.675a.695.695 0 0 1-.675.675Z" clip-rule="evenodd"></path><path fill="currentColor" fill-rule="evenodd" d="M12 3c4.902 0 9 4.098 9 9 0 4.875-4.093 9-9 9-4.839 0-9-4.125-9-9 0-4.85 4.103-9 9-9Zm5.373 11.171V9.83c-.002-1.743-1.459-3.2-3.202-3.202H9.83c-1.743.002-3.2 1.459-3.202 3.202v4.342c.002 1.743 1.459 3.2 3.202 3.202h4.342c1.743-.002 3.2-1.459 3.202-3.202Z" clip-rule="evenodd"></path></svg>