<svg xmlns="http://www.w3.org/2000/svg" width="93.87px" height="40px" fill="none" viewBox="0 0 94 40" style="vertical-align:middle;margin-left:1rem" id="trusted-by"><path fill="#F7B306" d="M25.601 38.83c-5.413-.096-10.782-2.14-14.292-6.133a19.307 19.307 0 0 1-4.422-8.79c-.69-3.253-.649-6.657.367-9.845 1.198-3.757 3.134-6.7 5.942-8.899l-.024-.022c-3.125 2.402-5.218 5.447-6.29 8.81-1.036 3.249-1.234 6.732-.532 10.045.703 3.313 2.156 6.533 4.435 9.124 3.808 4.331 9.284 6.55 14.8 6.655a.4.4 0 0 0 .293-.112.373.373 0 0 0 .122-.281v-.16a.4.4 0 0 0-.399-.392ZM4.308 7.596c-.095.673-.117 1.307-.021 1.894.096.586.314 1.134.704 1.638.36.464.866.894 1.559 1.287.383-.683.588-1.304.648-1.88a3.517 3.517 0 0 0-.27-1.755c-.231-.553-.588-1.084-1.027-1.612a17.787 17.787 0 0 0-1.235-1.313 17.23 17.23 0 0 0-.358 1.741Zm5.784-6.191c-.244.565-.416 1.112-.472 1.644a3.16 3.16 0 0 0 .222 1.581c.199.478.531.96 1.03 1.452.488-.503.81-.992.997-1.475a3.16 3.16 0 0 0 .185-1.587c-.069-.53-.253-1.072-.51-1.63A15.54 15.54 0 0 0 10.8 0c-.268.48-.512.947-.71 1.405Zm6.86 5.744c.428-.27.86-.585 1.301-.927a16.78 16.78 0 0 0-1.544-.46c-.614-.144-1.2-.222-1.753-.193a3.446 3.446 0 0 0-1.579.458c-.456.265-.896.658-1.32 1.212.589.388 1.139.619 1.66.723a3.473 3.473 0 0 0 1.648-.071c.53-.149 1.056-.41 1.586-.742ZM.925 23.865c.388.596.808 1.115 1.29 1.52s1.035.7 1.695.849c.61.137 1.314.15 2.142.014-.167-.798-.434-1.43-.785-1.93a3.843 3.843 0 0 0-1.428-1.222c-.564-.29-1.216-.481-1.932-.617A19.72 19.72 0 0 0 0 22.233c.3.584.603 1.135.926 1.632ZM.908 15.7c.214.663.477 1.259.829 1.76.35.5.799.915 1.388 1.217.542.28 1.206.464 2.025.536.049-.795-.04-1.458-.244-2.018a3.686 3.686 0 0 0-1.037-1.51c-.458-.411-1.028-.752-1.673-1.056a19.076 19.076 0 0 0-1.74-.698c.131.625.275 1.22.452 1.77Zm10.65.405c.191-.544.349-1.136.497-1.759-.626.206-1.218.418-1.757.657-.65.288-1.226.615-1.699 1.018-.47.402-.839.884-1.074 1.485-.217.555-.323 1.216-.294 2.012.821-.053 1.49-.222 2.038-.488a3.786 3.786 0 0 0 1.417-1.185c.365-.494.642-1.084.873-1.74Zm1.896-5.277c.318-.47.616-.99.911-1.542-.642.048-1.254.109-1.822.207-.688.12-1.317.294-1.867.564a3.701 3.701 0 0 0-1.393 1.153c-.346.474-.613 1.073-.786 1.832.79.142 1.464.139 2.05.017a3.787 3.787 0 0 0 1.641-.79c.47-.381.882-.874 1.266-1.441ZM9.827 39.45c.752.285 1.48.48 2.188.535a4.433 4.433 0 0 0 2.092-.325c.643-.27 1.286-.713 1.938-1.377-.697-.616-1.372-1.015-2.033-1.24a4.445 4.445 0 0 0-2.111-.183c-.702.102-1.413.347-2.143.682-.622.287-1.255.637-1.906 1.02.678.338 1.335.645 1.975.888Zm-6.173-7.217c.577.494 1.163.9 1.778 1.174a4.226 4.226 0 0 0 1.983.372c.664-.037 1.388-.229 2.191-.611-.414-.77-.881-1.338-1.394-1.747a4.165 4.165 0 0 0-1.827-.832c-.663-.132-1.384-.138-2.152-.07-.646.058-1.328.17-2.037.305.489.513.97.992 1.458 1.41Zm9.539-6.19a19.288 19.288 0 0 0-.787-1.843c-.4.58-.766 1.146-1.07 1.704-.359.66-.629 1.307-.757 1.95a3.86 3.86 0 0 0 .095 1.953c.194.616.558 1.25 1.133 1.915.674-.572 1.133-1.146 1.423-1.725a3.872 3.872 0 0 0 .403-1.916c-.024-.653-.189-1.332-.44-2.038Zm-1.769-4.81a17.83 17.83 0 0 0-.033-1.863c-.553.374-1.07.746-1.53 1.13-.55.46-1.018.94-1.361 1.463a3.677 3.677 0 0 0-.613 1.748c-.049.605.042 1.28.306 2.051.79-.278 1.395-.628 1.853-1.038a3.758 3.758 0 0 0 1.037-1.55c.211-.584.31-1.236.341-1.941Zm5.194 9.128c-.463-.487-.998-.97-1.57-1.462a20.137 20.137 0 0 0-.294 2.089c-.06.78-.04 1.512.116 2.18a4.11 4.11 0 0 0 .939 1.838c.456.515 1.085.98 1.931 1.386.404-.828.6-1.569.626-2.247a4.053 4.053 0 0 0-.442-2.004c-.306-.618-.76-1.203-1.306-1.78Zm1.82-29.18c-.643.051-1.236.158-1.762.36-.524.2-.988.499-1.377.937-.356.402-.652.923-.878 1.594.702.191 1.313.243 1.857.18a3.503 3.503 0 0 0 1.572-.583c.464-.31.886-.727 1.288-1.216.328-.397.643-.84.957-1.311a17.04 17.04 0 0 0-1.657.038Z"></path><path fill="#000" d="M24.436 4.605v-.707h4.93v.707H27.3v5.867h-.796V4.605h-2.067ZM29.98 10.472v-4.93h.732v.745h.052c.09-.244.252-.442.488-.594.235-.152.5-.228.796-.228a8.39 8.39 0 0 1 .398.013v.77a2.25 2.25 0 0 0-.177-.029 1.738 1.738 0 0 0-.286-.022c-.24 0-.453.05-.642.15a1.107 1.107 0 0 0-.604 1.005v3.12h-.757ZM36.45 8.457V5.542h.758v4.93h-.757v-.834h-.052c-.115.25-.295.463-.539.639-.244.173-.552.26-.924.26-.308 0-.582-.068-.822-.203a1.415 1.415 0 0 1-.565-.616c-.137-.276-.205-.624-.205-1.043V5.542h.757v3.081c0 .36.1.647.302.86.203.215.462.322.777.322.188 0 .38-.048.574-.145.197-.096.362-.244.495-.443.134-.199.202-.452.202-.76ZM42.088 6.646l-.68.193a1.263 1.263 0 0 0-.19-.33.918.918 0 0 0-.334-.27 1.212 1.212 0 0 0-.542-.106c-.302 0-.553.07-.754.208-.2.137-.299.312-.299.523a.54.54 0 0 0 .206.447c.137.109.35.2.642.272l.731.18c.441.107.77.27.986.491.216.219.324.5.324.845 0 .282-.081.535-.244.757-.16.223-.385.398-.674.527a2.462 2.462 0 0 1-1.008.192c-.503 0-.919-.109-1.248-.327-.33-.219-.539-.537-.626-.957l.719-.18c.068.266.197.465.388.597.193.133.444.2.754.2.353 0 .634-.075.841-.225.21-.152.315-.334.315-.546a.573.573 0 0 0-.18-.43c-.12-.118-.304-.206-.552-.263l-.822-.193c-.451-.107-.783-.273-.995-.497a1.205 1.205 0 0 1-.314-.851c0-.278.078-.524.234-.738.158-.214.373-.382.645-.504.274-.122.584-.183.931-.183.488 0 .871.107 1.15.32.28.215.479.497.596.848ZM45.463 5.542v.642h-2.555v-.642h2.555Zm-1.81-1.181h.757V9.06c0 .214.03.374.093.481a.482.482 0 0 0 .244.212c.1.035.206.052.318.052.083 0 .152-.005.205-.013l.128-.026.155.68a1.584 1.584 0 0 1-.565.09c-.214 0-.424-.045-.63-.138a1.25 1.25 0 0 1-.507-.42c-.132-.188-.199-.426-.199-.713V4.361ZM48.616 10.575c-.475 0-.884-.105-1.229-.314a2.111 2.111 0 0 1-.793-.886c-.184-.381-.276-.824-.276-1.33 0-.504.092-.95.276-1.335.186-.387.445-.689.777-.905a2.086 2.086 0 0 1 1.168-.327c.257 0 .51.043.761.128.25.086.478.225.684.417.205.19.369.443.491.758s.183.702.183 1.162v.32h-3.8V7.61h3.03c0-.278-.056-.526-.167-.745a1.258 1.258 0 0 0-.469-.516 1.313 1.313 0 0 0-.713-.19 1.36 1.36 0 0 0-.783.225c-.218.148-.386.34-.504.578a1.697 1.697 0 0 0-.176.764v.436c0 .373.064.688.192.947.13.257.312.453.543.588.23.132.5.199.805.199.2 0 .38-.028.54-.084.162-.058.303-.143.42-.257.118-.115.209-.259.273-.43l.732.206a1.622 1.622 0 0 1-.389.654 1.893 1.893 0 0 1-.674.437 2.5 2.5 0 0 1-.902.154ZM53.672 10.575a1.93 1.93 0 0 1-1.088-.311 2.102 2.102 0 0 1-.738-.886c-.178-.383-.267-.836-.267-1.358 0-.518.089-.967.267-1.348.177-.381.424-.675.741-.883a1.957 1.957 0 0 1 1.098-.311c.32 0 .575.053.76.16.189.105.332.225.43.36.101.132.18.242.235.327h.064V3.898h.758v6.574H55.2v-.757h-.09c-.056.09-.135.203-.237.34a1.41 1.41 0 0 1-.44.363c-.19.105-.444.157-.76.157Zm.103-.68c.304 0 .56-.08.77-.238.21-.16.37-.382.478-.664.11-.285.164-.614.164-.986 0-.368-.053-.69-.16-.966a1.406 1.406 0 0 0-.475-.648c-.21-.157-.47-.235-.777-.235-.321 0-.589.083-.803.247a1.48 1.48 0 0 0-.478.665c-.105.278-.157.59-.157.937 0 .351.053.67.16.957.11.284.27.511.482.68.214.167.48.25.796.25ZM60.07 10.472V3.898h.757v2.427h.064c.056-.085.133-.195.231-.327.1-.135.244-.255.43-.36.189-.107.443-.16.764-.16.416 0 .781.104 1.098.311.317.208.564.502.742.883.177.38.266.83.266 1.348 0 .522-.089.975-.266 1.358-.178.38-.424.676-.739.886a1.93 1.93 0 0 1-1.088.311c-.316 0-.57-.052-.76-.157a1.41 1.41 0 0 1-.44-.363 4.851 4.851 0 0 1-.238-.34h-.09v.757h-.732Zm.744-2.465c0 .373.055.701.164.986.109.282.268.504.478.664.21.158.467.238.77.238.317 0 .581-.084.793-.25.214-.17.375-.397.482-.681.109-.287.164-.606.164-.957 0-.347-.054-.659-.16-.937a1.449 1.449 0 0 0-.48-.665c-.211-.164-.477-.247-.798-.247-.309 0-.568.078-.777.235-.21.154-.368.37-.475.648-.107.276-.16.598-.16.966ZM65.892 12.321a1.66 1.66 0 0 1-.552-.09l.193-.667c.184.047.346.064.488.051a.584.584 0 0 0 .375-.19c.111-.11.213-.291.305-.542l.141-.385-1.823-4.956h.822L67.2 9.47h.052l1.361-3.93h.822l-2.093 5.65c-.094.255-.21.466-.35.633-.139.169-.3.294-.484.375a1.495 1.495 0 0 1-.617.122ZM27.299 24.449c-.546 0-1.033-.1-1.46-.301a2.542 2.542 0 0 1-1.013-.831 2.134 2.134 0 0 1-.39-1.213h1.623a.987.987 0 0 0 .386.745c.24.191.524.286.854.286.262 0 .494-.058.695-.174.204-.118.362-.281.475-.49.116-.211.174-.454.174-.727 0-.278-.059-.522-.177-.733a1.256 1.256 0 0 0-.483-.495 1.421 1.421 0 0 0-.707-.182c-.232 0-.457.048-.677.143a1.222 1.222 0 0 0-.506.39l-1.487-.266.375-4.172h4.837v1.367H26.36l-.205 1.982h.047c.139-.196.349-.358.63-.487.28-.128.594-.193.942-.193.476 0 .901.112 1.275.336.373.224.668.532.885.924.216.389.323.837.32 1.344a2.674 2.674 0 0 1-.37 1.422 2.615 2.615 0 0 1-1.04.973c-.443.235-.958.352-1.545.352ZM40.967 19.199h-1.693a1.654 1.654 0 0 0-.189-.584 1.484 1.484 0 0 0-.367-.44 1.617 1.617 0 0 0-.518-.278 1.98 1.98 0 0 0-.63-.097c-.409 0-.766.102-1.07.305-.303.201-.54.495-.706.881-.168.384-.252.85-.252 1.399 0 .564.084 1.038.252 1.421.17.384.406.674.71.87.304.195.656.293 1.055.293.224 0 .431-.03.622-.089.193-.059.364-.145.514-.258.15-.116.273-.257.37-.422.101-.164.17-.352.21-.564l1.692.008a3.158 3.158 0 0 1-1.028 1.951 3.292 3.292 0 0 1-1.043.626 3.835 3.835 0 0 1-1.364.228c-.706 0-1.337-.16-1.893-.48a3.4 3.4 0 0 1-1.314-1.386c-.319-.605-.479-1.338-.479-2.198 0-.863.163-1.597.487-2.203a3.392 3.392 0 0 1 1.321-1.383 3.703 3.703 0 0 1 1.878-.479c.459 0 .884.065 1.275.194.394.128.743.316 1.047.564.304.244.551.544.742.9.193.355.317.762.37 1.22ZM42.135 24.34v-5.933h1.596v1.035h.062c.108-.368.29-.646.544-.835.255-.19.549-.285.881-.285a2.488 2.488 0 0 1 .518.058v1.46a2.146 2.146 0 0 0-.32-.062 2.868 2.868 0 0 0-.375-.027c-.243 0-.459.053-.65.158a1.167 1.167 0 0 0-.448.433 1.25 1.25 0 0 0-.162.641v3.358h-1.646ZM48.992 24.457c-.6 0-1.12-.128-1.557-.383A2.618 2.618 0 0 1 46.426 23c-.236-.46-.355-.995-.355-1.603 0-.613.119-1.149.355-1.607.237-.461.574-.82 1.009-1.074.438-.258.957-.387 1.557-.387s1.118.13 1.553.387c.438.255.775.613 1.012 1.074.237.458.356.994.356 1.607 0 .608-.119 1.142-.356 1.603a2.61 2.61 0 0 1-1.012 1.074c-.435.255-.953.383-1.553.383ZM49 23.182c.273 0 .5-.077.683-.232.183-.157.321-.371.414-.641a2.77 2.77 0 0 0 .143-.924c0-.345-.048-.653-.143-.923a1.437 1.437 0 0 0-.414-.641 1.012 1.012 0 0 0-.683-.236c-.276 0-.508.078-.696.236-.185.157-.326.37-.42.64-.094.271-.14.58-.14.924 0 .345.046.653.14.924.094.27.235.484.42.64.188.155.42.233.696.233ZM52.983 24.34v-5.933h1.595v1.035h.062c.108-.368.29-.646.545-.835.255-.19.548-.285.88-.285a2.488 2.488 0 0 1 .518.058v1.46a2.142 2.142 0 0 0-.32-.062 2.869 2.869 0 0 0-.375-.027c-.242 0-.458.053-.649.158a1.167 1.167 0 0 0-.448.433 1.25 1.25 0 0 0-.162.641v3.358h-1.646ZM59.862 24.457c-.61 0-1.135-.124-1.576-.371a2.541 2.541 0 0 1-1.012-1.059c-.237-.458-.355-1-.355-1.626 0-.61.118-1.146.355-1.607.237-.462.57-.82 1-1.078.433-.258.94-.387 1.523-.387.391 0 .756.063 1.093.19.34.123.636.31.889.56.255.25.453.564.595.942.141.377.212.817.212 1.322v.452h-5.01v-1.02h3.461c0-.237-.051-.447-.154-.63a1.108 1.108 0 0 0-.43-.429 1.223 1.223 0 0 0-.63-.158c-.249 0-.47.058-.664.174a1.22 1.22 0 0 0-.448.46c-.108.19-.163.402-.166.637v.97c0 .293.054.547.162.76.111.214.267.38.468.495.2.116.439.174.715.174.182 0 .35-.026.502-.077a1.008 1.008 0 0 0 .637-.61l1.522.1a2.077 2.077 0 0 1-.475.958c-.237.27-.543.482-.92.634-.373.149-.804.224-1.294.224ZM66.01 23.912v-5.47h1.382v5.47H66.01Zm-2.045-2.044v-1.383h5.471v1.383h-5.47ZM45.98 30.18a.812.812 0 0 1-.615-.26.818.818 0 0 1-.25-.604c0-.24.083-.438.25-.605a.841.841 0 0 1 .615-.25c.23 0 .438.083.604.25.167.167.25.365.25.605s-.083.437-.25.604a.805.805 0 0 1-.604.26ZM46.636 35.945h-1.334v-5.191h1.334v5.19Z"></path><path fill="#000" fill-rule="evenodd" d="M52.493 32.745c0-.709-.208-1.24-.625-1.605-.407-.365-1.011-.553-1.814-.553a2.91 2.91 0 0 0-1.24.26 2.5 2.5 0 0 0-.948.762l.854.667c.157-.177.344-.334.574-.438a1.5 1.5 0 0 1 .698-.167c.365 0 .657.084.865.26a.84.84 0 0 1 .323.689v.229c-.386-.156-.844-.24-1.376-.24-.385 0-.74.073-1.063.22-.313.145-.573.343-.75.614-.188.26-.271.563-.271.917 0 .522.166.938.52 1.261.355.324.814.49 1.356.49.333 0 .625-.062.886-.198.25-.125.458-.291.615-.5h.083v.532h1.313v-3.2Zm-1.313 1.084c0 .333-.115.625-.344.865-.23.25-.532.375-.917.375-.281 0-.5-.062-.646-.198a.671.671 0 0 1-.23-.51c0-.522.355-.782 1.043-.782.385 0 .75.083 1.094.25Z" clip-rule="evenodd"></path><path fill="#000" d="M58.27 31.16c.323.376.49.897.49 1.554v3.23h-1.334V32.88c0-.333-.084-.594-.26-.771-.168-.188-.407-.281-.71-.281-.364 0-.646.146-.875.417-.219.28-.323.635-.323 1.052v2.648h-1.334v-5.191h1.25v.646h.073c.167-.25.386-.448.667-.594.282-.146.595-.219.928-.219.626 0 1.105.188 1.428.573ZM64.04 33.443c.26.26.396.584.396.98 0 .323-.104.625-.292.875-.198.261-.458.459-.802.594a2.766 2.766 0 0 1-1.116.22c-.625 0-1.136-.136-1.532-.386-.385-.26-.667-.594-.813-1.011l1.188-.521c.105.24.261.427.459.552.209.125.438.188.698.188.25 0 .449-.032.615-.115.167-.073.24-.209.24-.386a.406.406 0 0 0-.219-.375 2.4 2.4 0 0 0-.677-.23l-.605-.135c-.427-.104-.771-.281-1.053-.552a1.33 1.33 0 0 1-.416-1c0-.303.093-.574.27-.814.178-.24.428-.417.73-.552a2.754 2.754 0 0 1 1.032-.188c1.074 0 1.782.375 2.147 1.126l-1.146.5c-.198-.365-.522-.542-.97-.542-.24 0-.417.042-.552.125-.136.084-.209.188-.209.323 0 .24.23.428.699.542l.76.188c.522.125.907.323 1.168.594Z"></path><path fill="#000" fill-rule="evenodd" d="M43.816 28.648h-1.324v2.002l.073.73h-.073a1.834 1.834 0 0 0-.626-.563 1.84 1.84 0 0 0-.938-.23c-.469 0-.896.115-1.282.355-.385.229-.688.562-.907.98-.218.416-.323.896-.323 1.427 0 .532.105 1.011.324 1.428.218.417.52.75.906.98.386.24.813.354 1.282.354.355 0 .667-.073.938-.229.282-.146.49-.334.626-.552h.073v.615h1.25v-7.297Zm-1.251 4.701c0 .303-.063.563-.188.792a1.45 1.45 0 0 1-.521.542 1.395 1.395 0 0 1-.709.198 1.38 1.38 0 0 1-.688-.198 1.374 1.374 0 0 1-.52-.542 1.62 1.62 0 0 1-.188-.792c0-.302.062-.563.187-.792.125-.24.302-.417.521-.542a1.386 1.386 0 0 1 1.397 0c.219.125.386.302.521.542.125.23.188.49.188.792Z" clip-rule="evenodd"></path><path fill="#000" d="M36.732 31.16c.323.376.49.897.49 1.554v3.23h-1.334V32.88c0-.333-.084-.594-.26-.771-.167-.188-.407-.281-.71-.281-.364 0-.646.146-.875.417-.219.28-.323.635-.323 1.052v2.648h-1.334v-5.191h1.25v.646h.073c.167-.25.386-.448.668-.594.281-.146.594-.219.927-.219.626 0 1.105.188 1.428.573ZM29.436 36.007h1.365v-7.296h-1.365v7.296Z"></path><path fill="#F7B306" d="M68.271 38.83c5.413-.096 10.782-2.14 14.292-6.133a19.307 19.307 0 0 0 4.422-8.79c.69-3.253.649-6.657-.367-9.845-1.198-3.757-3.134-6.7-5.942-8.899l.024-.022c3.125 2.402 5.218 5.447 6.29 8.81 1.036 3.249 1.234 6.732.532 10.045-.703 3.313-2.157 6.533-4.435 9.124-3.807 4.331-9.284 6.55-14.8 6.655a.4.4 0 0 1-.293-.112.374.374 0 0 1-.122-.281v-.16a.4.4 0 0 1 .399-.392ZM89.564 7.596c.095.673.118 1.307.022 1.894a3.557 3.557 0 0 1-.705 1.638c-.36.464-.866.894-1.558 1.287-.384-.683-.589-1.304-.65-1.88a3.516 3.516 0 0 1 .27-1.755c.232-.553.59-1.084 1.029-1.612.363-.436.782-.871 1.234-1.313.151.606.28 1.188.358 1.741ZM83.78 1.405c.244.565.416 1.112.472 1.644a3.161 3.161 0 0 1-.221 1.581c-.2.478-.532.96-1.032 1.452-.487-.503-.808-.992-.996-1.475a3.16 3.16 0 0 1-.185-1.587c.07-.53.254-1.072.51-1.63.208-.453.463-.915.743-1.39.268.48.512.947.71 1.405Zm-6.859 5.744c-.429-.27-.86-.585-1.302-.927a16.78 16.78 0 0 1 1.544-.46c.614-.144 1.2-.222 1.753-.193.55.029 1.077.167 1.579.458.457.265.897.658 1.32 1.212-.589.388-1.138.619-1.66.723a3.473 3.473 0 0 1-1.648-.071c-.53-.149-1.056-.41-1.586-.742Zm16.025 16.716c-.388.596-.808 1.115-1.29 1.52s-1.035.7-1.695.849c-.61.137-1.314.15-2.141.014.166-.798.433-1.43.784-1.93.38-.54.864-.933 1.428-1.222.564-.29 1.216-.481 1.932-.617a19.734 19.734 0 0 1 1.908-.246c-.3.584-.603 1.135-.926 1.632Zm.018-8.165c-.214.663-.477 1.259-.829 1.76-.35.5-.799.915-1.388 1.217-.542.28-1.206.464-2.025.536-.049-.795.04-1.458.244-2.018a3.683 3.683 0 0 1 1.037-1.51c.458-.411 1.028-.752 1.673-1.056a19.032 19.032 0 0 1 1.74-.698c-.131.625-.275 1.22-.452 1.77Zm-10.65.405a17.755 17.755 0 0 1-.496-1.759c.625.206 1.217.418 1.756.657.65.288 1.226.615 1.699 1.018.47.402.839.884 1.074 1.485.217.555.323 1.216.294 2.012-.821-.053-1.49-.222-2.038-.488a3.788 3.788 0 0 1-1.416-1.185c-.365-.494-.643-1.084-.873-1.74Zm-1.896-5.277c-.318-.47-.616-.99-.91-1.542.641.048 1.253.109 1.821.207.688.12 1.317.294 1.867.564a3.7 3.7 0 0 1 1.394 1.153c.345.474.612 1.073.786 1.832-.79.142-1.465.139-2.05.017a3.787 3.787 0 0 1-1.642-.79c-.47-.381-.882-.874-1.266-1.441Zm3.627 28.622c-.752.285-1.48.48-2.188.535a4.433 4.433 0 0 1-2.092-.325c-.643-.27-1.286-.713-1.938-1.377.698-.616 1.372-1.015 2.033-1.24a4.445 4.445 0 0 1 2.111-.183c.701.102 1.413.347 2.142.682a21.7 21.7 0 0 1 1.907 1.02c-.677.338-1.335.645-1.975.888Zm6.173-7.217c-.577.494-1.163.9-1.778 1.174a4.227 4.227 0 0 1-1.983.372c-.664-.037-1.387-.229-2.191-.611.415-.77.881-1.338 1.394-1.747a4.165 4.165 0 0 1 1.828-.832c.662-.132 1.383-.138 2.151-.07.647.058 1.328.17 2.037.305-.489.513-.97.992-1.458 1.41Zm-9.539-6.19c.212-.597.485-1.21.787-1.843.399.58.766 1.146 1.07 1.704.359.66.628 1.307.757 1.95.128.643.114 1.29-.095 1.953-.195.616-.558 1.25-1.133 1.915-.673-.572-1.133-1.146-1.422-1.725a3.866 3.866 0 0 1-.404-1.916c.024-.653.19-1.332.44-2.038Zm1.769-4.81a17.83 17.83 0 0 1 .034-1.863c.552.374 1.07.746 1.528 1.13.551.46 1.02.94 1.362 1.463.342.521.56 1.094.613 1.748.049.605-.042 1.28-.306 2.051-.79-.278-1.395-.628-1.853-1.038a3.758 3.758 0 0 1-1.037-1.55c-.211-.584-.31-1.236-.341-1.941Zm-5.194 9.128c.464-.487.998-.97 1.57-1.462.134.726.243 1.425.294 2.089.06.78.04 1.512-.116 2.18a4.111 4.111 0 0 1-.939 1.838c-.456.515-1.084.98-1.93 1.386-.404-.828-.6-1.569-.627-2.247a4.053 4.053 0 0 1 .442-2.004c.307-.618.76-1.203 1.306-1.78Zm-1.82-29.18c.643.051 1.236.158 1.762.36.525.2.989.499 1.377.937.356.402.653.923.879 1.594-.702.191-1.314.243-1.857.18a3.503 3.503 0 0 1-1.573-.583c-.464-.31-.885-.727-1.288-1.216a16.18 16.18 0 0 1-.957-1.311c.577-.01 1.132-.004 1.658.038Z"></path></svg>