<svg xmlns="http://www.w3.org/2000/svg" width="38" height="38" viewBox="0 0 38 39"><path fill="currentColor" d="M18.684 36.493c-9.154 0-16.602-7.448-16.602-16.602S9.526 3.29 18.684 3.29c9.158 0 16.602 7.448 16.602 16.602 0 9.155-7.448 16.602-16.602 16.602Zm0-30.658c-7.752 0-14.056 6.308-14.056 14.056 0 7.749 6.308 14.056 14.056 14.056 7.748 0 14.056-6.308 14.056-14.056 0-7.748-6.308-14.056-14.056-14.056Z"></path><path stroke="currentColor" d="M29.368 19.971c0 5.852-4.744 10.596-10.596 10.596S8.176 25.823 8.176 19.971 12.92 9.375 18.772 9.375s10.596 4.744 10.596 10.596Z"></path><path fill="currentColor" d="M18.666 9.719c6.505-.05 11.407 5.741 10.207 12.16-.776 4.142-4.108 7.417-8.25 8.147C13.616 31.26 7.539 25.204 8.733 18.2c.817-4.792 5.05-8.447 9.929-8.485l.004.004Zm.577.399.008 1.31c0 .02-.053.153-.065.183-.167.342-.668.365-.885.06a1.277 1.277 0 0 1-.087-.178l-.008-1.337-.042-.027a10.031 10.031 0 0 0-4.43 1.357c-.042.064.334.38.09.562a.226.226 0 0 1-.315-.027c-.053-.053-.14-.28-.209-.262-1.326.878-2.45 2.075-3.192 3.473.21.095.661.228.502.54-.16.312-.536-.008-.737-.08a8.993 8.993 0 0 0-.954 3.694l1.38-.008c.018 0 .155.05.185.065.35.175.358.684.03.885-.026.015-.151.08-.166.08l-1.437.008c.08 1.428.464 2.865 1.148 4.123.03.057.24.433.262.448.053.034.228-.122.293-.148.106-.046.235-.034.3.072.148.243-.148.372-.32.471v.042a10.053 10.053 0 0 0 2.946 2.816c.106.064.44.281.54.308.022.003.033.011.049-.012.117-.19.235-.627.547-.433.273.171 0 .498-.091.688 1.151.566 2.454.87 3.739.927l-.008-1.482c0-.167.243-.376.403-.403.285-.053.638.152.638.456l.008 1.425a9.814 9.814 0 0 0 4.549-1.402c.022-.034-.095-.167-.118-.213-.053-.114-.042-.216.064-.292.206-.145.354.057.426.235.027.008.046-.004.068-.015.179-.076.631-.46.802-.6a10.123 10.123 0 0 0 1.991-2.269c.118-.186.225-.376.335-.566-.194-.099-.604-.251-.392-.54.179-.243.441.008.643.069.54-1.197.896-2.49.923-3.812l-1.417.008c-.22 0-.43-.316-.43-.52 0-.206.213-.51.441-.514l1.398-.007a9.754 9.754 0 0 0-1.371-4.382c-.152.065-.323.243-.483.076-.194-.209.065-.376.228-.475a9.928 9.928 0 0 0-3.04-2.926c-.091-.057-.33-.213-.418-.235-.038-.012-.019.003-.03.022-.107.19-.225.593-.529.384-.273-.186.027-.456.069-.672-1.102-.49-1.33-.544-2.045-.707a11.661 11.661 0 0 0-1.774-.247l-.012.004Z"></path><path fill="currentColor" d="M18.715 13.697c1.216-.05 2.185.931 2.174 2.136-.3 1.725-.532 3.47-.855 5.19-.053.278-.084.487-.255.723-.547.752-1.752.566-2.056-.304-.304-1.71-.665-3.417-.927-5.134-.06-.388-.095-.684.008-1.076a2.081 2.081 0 0 1 1.915-1.535h-.004ZM18.84 23.296c1.216-.08 2.006 1.243 1.337 2.273-.611.938-2.055.84-2.538-.167-.44-.92.179-2.037 1.205-2.102l-.004-.004Z"></path></svg>