<svg xmlns="http://www.w3.org/2000/svg" width="38" height="38" fill="currentColor" viewBox="0 0 38 39"><path d="M19.11 35.997c-9.154 0-16.602-7.448-16.602-16.602S9.956 2.79 19.11 2.79s16.602 7.448 16.602 16.602c0 9.155-7.448 16.602-16.602 16.602v.004Zm0-30.662c-7.752 0-14.056 6.308-14.056 14.056 0 7.749 6.308 14.056 14.056 14.056 7.748 0 14.056-6.308 14.056-14.056 0-7.748-6.304-14.056-14.056-14.056Z"></path><path d="M21.93 18.385a2.857 2.857 0 1 1-5.714.002 2.857 2.857 0 0 1 5.713-.002ZM20.295 21.965c-.364.088-.779.346-1.223.346-.445 0-.859-.262-1.224-.346-.57-.137-1.429-.402-1.991-.402s-.992.475-.958 1.056l.532 7.84a1.135 1.135 0 0 0 1.121 1.056h5.032c.585 0 1.086-.475 1.12-1.057l.533-7.84c.034-.584-.392-1.055-.958-1.055s-1.425.27-1.991.402h.007Z"></path><path d="m15.454 25.003-4.123-2.956-.098-.073a1.014 1.014 0 0 1-.403-1.014l1.11-5.563a.9.9 0 0 1 1.774.304l-.798 5.616-.502-1.087 4.56 2.227a1.49 1.49 0 0 1-1.307 2.675c-.072-.034-.148-.083-.213-.125v-.004ZM21.17 22.46l4.56-2.227-.502 1.087-.798-5.617a.903.903 0 0 1 .764-1.018.904.904 0 0 1 1.01.714l1.11 5.564c.08.399-.087.79-.398 1.014l-.103.072-4.123 2.957a1.485 1.485 0 0 1-2.075-.342 1.485 1.485 0 0 1 .555-2.2v-.004ZM19.957 13.753l1.554-4.385 1.167 1.033L24.14 8.13l2.238 1.045-3.69 3.716-.9-.68-1.832 1.543ZM18.187 13.753l-1.555-4.385-1.166 1.033-1.463-2.272-2.238 1.045 3.69 3.716.9-.68 1.832 1.543Z"></path></svg>