<svg xmlns="http://www.w3.org/2000/svg" width="30px" height="30px" fill="none" viewBox="0 0 24 24" class="text-neutral-500" style="color: inherit;"><path fill="currentColor" d="M15.19 15.601s-.536 0-.804.002c-.035 0-.055-.012-.075-.038-1.839-2.408-5.52-7.217-5.52-7.217l.868-.004s.05.011.068.035c1.82 2.409 5.463 7.222 5.463 7.222Z"></path><path fill="currentColor" fill-rule="evenodd" d="M12 21a9 9 0 1 0 0-18 9 9 0 0 0 0 18Zm5-4.477-.024-.029s-2.623-3.444-3.912-5.185l.003-.007L16.393 7.5c.018-.021-.006-.022-.023-.022h-1.458c-.025 0-.042.01-.058.028-.834.953-1.667 1.907-2.504 2.858l-2.152-2.843a.098.098 0 0 0-.089-.044L7 7.48l3.782 4.942-3.585 4.095s.993.003 1.49.003c.03 0 .05-.009.07-.031.91-1.044 1.78-2.132 2.741-3.13.817 1.022 1.593 2.078 2.386 3.117a.1.1 0 0 0 .09.044c1.008-.001 3.026.002 3.026.002Z" clip-rule="evenodd"></path></svg>