<svg xmlns="http://www.w3.org/2000/svg" width="1.5rem" height="1.5rem" fill="none" viewBox="0 0 24 24"><path fill="currentColor" fill-rule="evenodd" d="M21 12c0-.671-.92-1.228-1.06-1.855-.144-.649.446-1.558.17-2.143-.28-.594-1.345-.687-1.743-1.198-.4-.514-.256-1.598-.755-2.006-.5-.408-1.497-.022-2.078-.31-.572-.281-.898-1.323-1.531-1.47-.614-.144-1.347.648-2.003.648-.656 0-1.39-.792-2.003-.649-.633.148-.959 1.19-1.53 1.472-.581.287-1.577-.101-2.079.309-.501.41-.356 1.495-.755 2.006-.398.51-1.463.603-1.743 1.198-.276.585.314 1.494.17 2.142C3.92 10.772 3 11.33 3 12s.92 1.227 1.06 1.855c.144.649-.446 1.558-.17 2.143.28.595 1.345.688 1.743 1.198.4.513.256 1.598.755 2.006.5.408 1.497.022 2.078.31.572.281.898 1.323 1.531 1.47.614.143 1.347-.648 2.003-.648.656 0 1.39.791 2.003.649.633-.148.959-1.19 1.53-1.472.581-.287 1.577.101 2.079-.309.501-.41.356-1.495.755-2.006.398-.51 1.463-.603 1.743-1.198.276-.585-.314-1.494-.17-2.142C20.08 13.228 21 12.67 21 12ZM15.975 9.38c.81-.793-.42-2.05-1.23-1.257L8.08 14.641c-.81.793.419 2.05 1.229 1.257l6.666-6.52Zm-.176 5.158a1.099 1.099 0 1 1-2.197 0 1.099 1.099 0 0 1 2.197 0Zm-6.372-3.955a1.099 1.099 0 1 0 0-2.198 1.099 1.099 0 0 0 0 2.198Z" clip-rule="evenodd"></path></svg>