<svg xmlns="http://www.w3.org/2000/svg" width="24px" height="24px" fill="none" viewBox="0 0 24 24" class="text-neutral-500"><path fill="currentColor" d="M15.694 5.781V4.578A.585.585 0 0 0 15.111 4a.585.585 0 0 0-.583.578v1.157H9.472V4.578A.585.585 0 0 0 8.889 4a.585.585 0 0 0-.584.578v1.203c-2.1.193-3.119 1.434-3.274 3.277a.389.389 0 0 0 .389.409h13.16c.225 0 .412-.193.389-.409-.156-1.843-1.175-3.084-3.275-3.277ZM18.222 10.625H5.778a.777.777 0 0 0-.778.771v4.75c0 2.313 1.167 3.855 3.889 3.855h6.222c2.722 0 3.889-1.542 3.889-3.855v-4.75a.777.777 0 0 0-.778-.771ZM9.83 17.079c-.039.03-.078.07-.117.093a.592.592 0 0 1-.14.069.498.498 0 0 1-.14.046c-.054.008-.1.016-.155.016a.78.78 0 0 1-.296-.062.804.804 0 0 1-.256-.162.807.807 0 0 1-.226-.547c0-.201.086-.401.226-.548a.804.804 0 0 1 .256-.162.75.75 0 0 1 .591 0 .592.592 0 0 1 .14.07c.04.03.078.061.117.092.14.147.226.347.226.548 0 .2-.086.4-.226.547Zm0-2.699a.822.822 0 0 1-.552.224.822.822 0 0 1-.552-.224.807.807 0 0 1-.226-.547c0-.2.086-.401.226-.548a.782.782 0 0 1 .847-.162.727.727 0 0 1 .257.162c.14.147.226.347.226.548 0 .2-.086.4-.226.547Zm2.722 2.699a.822.822 0 0 1-.552.224.822.822 0 0 1-.552-.224.807.807 0 0 1-.226-.547c0-.201.086-.401.226-.548.288-.285.816-.285 1.104 0 .14.147.226.347.226.548 0 .2-.086.4-.226.547Zm0-2.699-.116.093a.59.59 0 0 1-.14.07.5.5 0 0 1-.14.045c-.055.008-.102.016-.156.016a.822.822 0 0 1-.552-.224.807.807 0 0 1-.226-.547c0-.2.086-.401.226-.548a.727.727 0 0 1 .256-.162.782.782 0 0 1 .848.162c.14.147.226.347.226.548 0 .2-.086.4-.226.547Zm2.722 2.699a.821.821 0 0 1-.552.224.822.822 0 0 1-.552-.224.807.807 0 0 1-.226-.547c0-.201.086-.401.226-.548.288-.285.817-.285 1.104 0 .14.147.226.347.226.548 0 .2-.086.4-.226.547Zm0-2.699-.116.093a.59.59 0 0 1-.14.07.5.5 0 0 1-.14.045c-.055.008-.11.016-.156.016a.822.822 0 0 1-.552-.224.807.807 0 0 1-.226-.547c0-.2.086-.401.226-.548a.805.805 0 0 1 .257-.162.75.75 0 0 1 .59 0 .594.594 0 0 1 .14.07c.04.03.079.061.117.092.14.147.226.347.226.548 0 .2-.086.4-.226.547Z"></path></svg>