<svg xmlns="http://www.w3.org/2000/svg" width="1.5rem" height="1.5rem" fill="none" viewBox="0 0 22 19"><path fill="currentColor" fill-rule="evenodd" d="M11 3.478c-3.285 0-5.948 2.652-5.948 5.923 0 3.27 2.663 5.922 5.948 5.922h3.06a2.882 2.882 0 0 0 2.888-2.876V9.401c0-3.271-2.663-5.923-5.948-5.923ZM7.925 8.614c1.018 0 1.018 1.573 0 1.573-1.019 0-1.019-1.573 0-1.573Zm3.075 0c-1.018 0-1.018 1.573 0 1.573 1.019 0 1.019-1.573 0-1.573Zm3.075 0c1.019 0 1.019 1.573 0 1.573-1.018 0-1.018-1.573 0-1.573Z" clip-rule="evenodd"></path><path fill="currentColor" d="M3.419 7.23a7.879 7.879 0 0 1 15.162 0 1.832 1.832 0 0 0-.753 1.483v3.258c0 2.367 3.672 2.367 3.672 0V8.713c0-.88-.62-1.616-1.448-1.794A9.38 9.38 0 0 0 11 0a9.38 9.38 0 0 0-9.052 6.919A1.836 1.836 0 0 0 .5 8.713v3.258c0 1.355 1.492 2.24 2.673 1.634 1.061 1.758 2.862 4.569 5.585 4.8.167.341.515.578.92.583l1.039.012c1.339.016 1.363-2.064.024-2.08l-1.038-.012a1.037 1.037 0 0 0-.874.46c-2.455-.211-4.043-2.731-4.956-4.392.19-.289.3-.634.3-1.005V8.713c0-.609-.297-1.149-.754-1.482Z"></path></svg>