<svg xmlns="http://www.w3.org/2000/svg" width="120px" height="26.6px" fill="none" viewBox="0 0 120 28" style="color:gray;vertical-align:middle" id="abhibus-logo"><g clip-path="url(#logo_svg__a)"><path fill="#BF2629" d="M11.394 24.776h-.07c-1.142 1.8-3.22 2.528-5.332 2.528C2.84 27.304 0 25.503 0 22.109c0-5.818 7.065-5.922 11.394-5.922 0-1.836-1.523-3.014-3.325-3.014-1.697 0-3.116.762-4.225 2.009l-2.77-2.84c1.904-1.8 4.675-2.701 7.411-2.701 6.061 0 7.689 3.082 7.689 8.692v8.554h-4.78v-2.113.002Zm-1.281-5.264c-1.593 0-5.126.139-5.126 2.424 0 1.247 1.316 1.836 2.459 1.836 2.043 0 3.948-1.074 3.948-3.152v-1.108h-1.281ZM19.047.703h5.195v11.151h.07c1.177-1.627 3.185-2.216 5.332-2.216 4.78 0 7.69 4.294 7.69 8.97 0 5.09-3.29 8.692-8.278 8.692-2.355 0-4.364-1.42-5.16-2.632h-.07v2.217h-4.78V.703Zm8.935 22.026c2.598 0 4.156-1.732 4.156-4.26 0-2.528-1.558-4.26-4.156-4.26-2.597 0-4.156 1.732-4.156 4.26 0 2.528 1.559 4.26 4.156 4.26ZM44.71.703V12.34h.07c.484-1.316 2.181-2.701 4.71-2.701 5.263 0 6.233 3.463 6.233 7.965v9.282h-5.194v-8.243c0-1.939-.035-4.432-2.702-4.432s-3.117 2.112-3.117 4.294v8.381h-5.195V.703h5.195ZM61.195 1.742a3.015 3.015 0 0 1 3.013 3.013 3.015 3.015 0 0 1-3.013 3.013 3.016 3.016 0 0 1-3.013-3.013 3.016 3.016 0 0 1 3.013-3.013Zm-2.597 8.313h5.194v16.83h-5.194v-16.83Z"></path><path fill="#551716" d="M67.151.703h5.196v11.151h.069c1.177-1.627 3.186-2.216 5.333-2.216 4.78 0 7.689 4.294 7.689 8.97 0 5.09-3.29 8.692-8.277 8.692-2.355 0-4.364-1.42-5.16-2.632h-.07v2.217h-4.78V.703Zm8.936 22.026c2.597 0 4.156-1.732 4.156-4.26 0-2.528-1.559-4.26-4.156-4.26-2.598 0-4.156 1.732-4.156 4.26 0 2.528 1.558 4.26 4.156 4.26ZM103.827 26.887H98.84V24.6h-.07c-.692 1.316-2.389 2.701-4.917 2.701-5.264 0-6.234-3.463-6.234-7.965v-9.282h5.195v8.243c0 1.939.035 4.432 2.702 4.432s3.117-2.112 3.117-4.294v-8.381h5.195v16.831h-.001ZM116.155 15.008c-.761-.935-1.766-1.42-3.013-1.42-.866 0-1.904.381-1.904 1.386 0 2.493 8.762.38 8.762 6.788 0 4.294-4.156 5.541-7.757 5.541-2.355 0-4.953-.588-6.615-2.285l3.152-3.498c.97 1.177 2.112 1.835 3.671 1.835 1.177 0 2.354-.312 2.354-1.212 0-2.702-8.761-.416-8.761-6.823 0-3.948 3.532-5.68 7.064-5.68 2.217 0 4.676.555 6.234 2.217l-3.186 3.152-.001-.001Z"></path></g><defs><clipPath id="logo_svg__a"><path fill="#fff" d="M0 .703h120V27.3H0z"></path></clipPath></defs></svg>