<svg xmlns="http://www.w3.org/2000/svg" width="30px" height="30px" fill="none" viewBox="0 0 24 24" class="text-neutral-500" style="color: inherit;"><path fill="currentColor" d="m10.776 10.546 2.758 1.398c.065.04.064.15-.002.189l-2.758 1.316c-.067.032-.157-.025-.158-.099v-2.704c0-.076.093-.133.16-.1Z"></path><path fill="currentColor" fill-rule="evenodd" d="M12 3c4.902 0 9 4.098 9 9 0 4.897-4.15 9-9 9-4.897 0-9.03-4.197-9-9.056C3.03 7.058 7.146 3 12 3Zm5.044 10.474v-2.948c0-1.14-.953-2.095-2.094-2.095h-5.9c-1.14 0-2.095.954-2.095 2.095v2.948c0 1.14.955 2.095 2.095 2.095h5.9c1.14 0 2.095-.954 2.095-2.095Z" clip-rule="evenodd"></path></svg>