<svg xmlns="http://www.w3.org/2000/svg" width="24px" height="24px" fill="none" viewBox="0 0 24 24" class="text-neutral-500"><path fill="currentColor" d="M17.26 5.111A7.132 7.132 0 0 0 12.186 3c-1.912 0-3.714.75-5.075 2.111A7.132 7.132 0 0 0 5 10.186c0 3.066 2.02 5.852 4.92 6.8l2.266 3.925 2.265-3.925a7.074 7.074 0 0 0 3.509-2.528 7.117 7.117 0 0 0 1.41-4.272c0-1.911-.749-3.713-2.11-5.074ZM13.47 15.7l-1.25 2.148-1.246-2.148-.31-.076a5.68 5.68 0 0 1-4.113-5.437c0-1.497.588-2.91 1.656-3.979a5.594 5.594 0 0 1 3.979-1.655 5.61 5.61 0 0 1 3.979 1.643 5.594 5.594 0 0 1 1.655 3.991c0 1.21-.404 2.418-1.137 3.4a5.638 5.638 0 0 1-2.906 2.037l-.307.076Z"></path><path fill="currentColor" d="M16.235 10.228a4.049 4.049 0 1 1-8.097 0 4.049 4.049 0 0 1 8.097 0Z"></path></svg>