<svg xmlns="http://www.w3.org/2000/svg" width="24px" height="24px" fill="none" viewBox="0 0 24 24" class="text-neutral-500"><path fill="currentColor" fill-rule="evenodd" d="M19.953 19.503a.334.334 0 0 1 .022.297.317.317 0 0 1-.417.175l-5.923-2.542a.329.329 0 0 1-.192-.26l-.542-4.299h-1.805l-.54 4.279a.324.324 0 0 1-.194.28l-5.92 2.542a.314.314 0 0 1-.269-.011.329.329 0 0 1-.138-.438l7.68-15.349a.314.314 0 0 1 .566 0l7.672 15.326ZM11.725 7.908h.548l-.274-2.163-.275 2.163Zm.633.676h-.718l-.373 2.942h1.463l-.372-2.942Z" clip-rule="evenodd"></path></svg>