<svg xmlns="http://www.w3.org/2000/svg" width="1.5rem" height="1.5rem" fill="none" viewBox="0 0 24 24"><path fill="currentColor" d="M11.917 2.422h.134a5.005 5.005 0 0 1 4.473 2.919 4.95 4.95 0 0 1 .283 3.314 5.004 5.004 0 0 1-3.02 3.377 4.933 4.933 0 0 1-2.641.259 4.964 4.964 0 0 1-2.541-1.274A4.947 4.947 0 0 1 8.36 4.02a5.006 5.006 0 0 1 3.556-1.598ZM5.696 13.704a6.086 6.086 0 0 1 2.677-.977c.375-.014.64.29.948.453 1.704 1.025 3.996.96 5.633-.174.215-.162.47-.302.75-.27 1.63.2 3.154 1.105 4.13 2.424.294.376.545.788.719 1.234.066.18-.068.34-.158.483-.226.376-.49.728-.765 1.07-.765.899-1.654 1.705-2.685 2.288-1.474.871-3.183 1.317-4.892 1.34h-.142c-.38-.02-.76-.022-1.137-.08a9.759 9.759 0 0 1-4.834-1.982c-.957-.763-1.803-1.674-2.433-2.727a.471.471 0 0 1-.039-.448 6.206 6.206 0 0 1 2.228-2.634Z"></path></svg>