<svg xmlns="http://www.w3.org/2000/svg" width="1.5rem" height="1.5rem" fill="none" viewBox="0 0 24 24"><path fill="currentColor" d="M3.707 19.997h12.137v-.938a.368.368 0 0 1 .637-.277.37.37 0 0 1 .098.277v.938h3.31a2.208 2.208 0 0 0 2.207-2.207v-1.937a.369.369 0 0 0-.368-.368 1.229 1.229 0 0 1 0-2.457.368.368 0 0 0 .368-.367v-1.938a2.208 2.208 0 0 0-2.207-2.207h-3.31v.938a.37.37 0 1 1-.736 0v-.938H3.707A2.208 2.208 0 0 0 1.5 10.722v1.938a.367.367 0 0 0 .367.367 1.229 1.229 0 0 1 0 2.457.369.369 0 0 0-.367.368v1.939a2.209 2.209 0 0 0 2.207 2.206Zm12.137-8.62a.368.368 0 0 1 .717-.151.37.37 0 0 1 .018.15v1.92a.37.37 0 1 1-.735 0v-1.92Zm0 3.843a.368.368 0 0 1 .64-.28.368.368 0 0 1 .095.28v1.92a.37.37 0 1 1-.735 0v-1.92ZM6.39 12.395h5.406a.368.368 0 1 1 0 .736H6.391a.368.368 0 0 1 0-.736Zm0 2.99h2.704a.368.368 0 1 1 0 .736H6.39a.368.368 0 0 1 0-.736Z"></path><path fill="currentColor" d="M21.378 8.188c.478.28.867.689 1.122 1.18l-1.132-3.78a2.21 2.21 0 0 0-2.737-1.5L5.917 7.78H19.89c.524-.002 1.04.14 1.49.408Z"></path></svg>