<svg xmlns="http://www.w3.org/2000/svg" width="38" height="38" fill="currentColor" viewBox="0 0 38 39"><path d="M21.877 16.036a.704.704 0 0 0-1 0l-1.793 1.794-1.793-1.794a.704.704 0 0 0-1 0 .704.704 0 0 0 0 1l1.794 1.793-1.794 1.794a.704.704 0 0 0 0 1c.137.136.32.208.502.208a.702.702 0 0 0 .501-.209l1.794-1.793 1.793 1.793a.702.702 0 0 0 1.003 0 .704.704 0 0 0 0-1l-1.793-1.793 1.794-1.793a.704.704 0 0 0 0-1h-.008Z"></path><path d="M18.825 36.325c-9.154 0-16.602-7.448-16.602-16.602S9.67 3.121 18.825 3.121s16.602 7.448 16.602 16.602c0 9.155-7.448 16.602-16.602 16.602Zm0-30.662c-7.752 0-14.056 6.308-14.056 14.056 0 7.749 6.308 14.057 14.056 14.057 7.748 0 14.056-6.308 14.056-14.057 0-7.748-6.304-14.056-14.056-14.056Z"></path><path d="M10.28 16.645H9.4a.247.247 0 0 0-.247.247v2.26c0 .137.11.247.247.247h.878c.136 0 .247-.11.247-.247v-2.26a.247.247 0 0 0-.247-.247ZM28.363 16.602h-.878a.247.247 0 0 0-.247.247v2.26c0 .137.11.248.247.248h.878c.137 0 .247-.111.247-.247v-2.261a.247.247 0 0 0-.247-.247Z"></path><path d="M27.695 15.98s.015.008.015.016v.604h.399v-.604c0-.217-.187-.392-.418-.392h-.867v-3.078c0-.866-.676-1.58-1.543-1.63l-5.89-.17a8.308 8.308 0 0 0-.972 0l-5.837.166a1.747 1.747 0 0 0-1.653 1.745v3.013H10.1c-.25 0-.455.175-.455.391v.605h.437v-.605s.007-.015.018-.015h.829v11.651a.72.72 0 0 0 .718.718h.14v.597c0 .315.255.57.57.57h1.008a.57.57 0 0 0 .57-.57v-.597h9.933v.597c0 .315.255.57.57.57h1.007a.57.57 0 0 0 .57-.57v-.597h.091c.395 0 .718-.319.718-.718V15.984h.867l.004-.003Zm-14.167-3.739c0-.25.205-.452.452-.452h9.918a.45.45 0 0 1 .453.452v1.186c0 .25-.206.452-.453.452H13.98a.45.45 0 0 1-.452-.452v-1.186Zm-1.03 14.155a.802.802 0 1 1 0-1.604.802.802 0 0 1 0 1.604Zm8.653 1.152c0 .133-.11.243-.243.243h-3.952a.245.245 0 0 1-.244-.243v-.365c0-.133.11-.243.244-.243h3.952c.133 0 .243.11.243.243v.365Zm1.558-1.953a.802.802 0 1 1 1.604 0 .802.802 0 0 1-1.604 0Zm3.393-3.569c0 .608-.479 1.11-1.09 1.133l-4.4.19a43.722 43.722 0 0 1-3.459 0l-4.366-.19a1.135 1.135 0 0 1-1.09-1.133v-6.771c0-.445.36-.802.809-.802h12.79c.445 0 .806.361.806.802v6.771Z"></path></svg>