<svg xmlns="http://www.w3.org/2000/svg" width="30px" height="30px" fill="none" viewBox="0 0 24 24" class="text-neutral-500" style="color: inherit;"><path fill="currentColor" d="M12 3a9 9 0 1 0 0 18 9 9 0 0 0 0-18ZM9.662 15.53H7.826v-5.523h1.836v5.524Zm-.918-6.277h-.012c-.616 0-1.014-.425-1.014-.955 0-.542.41-.954 1.038-.954.628 0 1.015.412 1.027.954 0 .53-.4.955-1.039.955Zm7.538 6.278h-1.836v-2.956c0-.742-.265-1.248-.93-1.248-.507 0-.809.341-.942.671-.048.118-.06.283-.06.448v3.085h-1.836s.024-5.005 0-5.524h1.836v.783c.244-.377.68-.913 1.655-.913 1.208 0 2.113.79 2.113 2.486v3.168Z"></path></svg>