<svg xmlns="http://www.w3.org/2000/svg" width="1.5rem" height="1.5rem" fill="none" viewBox="0 0 15 16" class="text-primary-500"><path fill="currentColor" d="M7.5 14.163c3.25 0 5.833-2.691 5.833-6.077 0-3.385-2.583-6.076-5.833-6.076-1.667 0-3.25.781-4.333 1.996l1.5.26c.416.088.75.522.666 1.043a.82.82 0 0 1-.833.694h-.167l-3.5-.694c-.416-.087-.75-.521-.666-1.042L.833.707a.867.867 0 0 1 1-.694c.417.087.75.521.667 1.042l-.25 1.476C3.667 1.14 5.5.274 7.5.274c2.75 0 5.167 1.562 6.5 3.906a7.996 7.996 0 0 1 1 3.906 7.996 7.996 0 0 1-1 3.907 7.421 7.421 0 0 1-2.75 2.864A7.209 7.209 0 0 1 7.5 15.9c-.333 0-.667-.26-.75-.521-.083-.087-.083-.26-.083-.347 0-.087 0-.26.083-.347.083-.26.417-.521.75-.521ZM.833 8.954c-.46 0-.833-.388-.833-.868s.373-.868.833-.868c.46 0 .834.389.834.868 0 .48-.373.868-.834.868Zm.184 3.06a.888.888 0 0 1 .305-1.186.815.815 0 0 1 1.138.318.888.888 0 0 1-.305 1.186.815.815 0 0 1-1.138-.318Zm2.746 2.816a.888.888 0 0 1-.305-1.185.815.815 0 0 1 1.138-.318c.398.24.535.77.305 1.186a.815.815 0 0 1-1.138.318Z"></path><path fill="currentColor" d="M6.667 7.74V5.481c0-.52.333-.868.833-.868.5 0 .833.347.833.868v2.604c0 .26-.083.434-.25.608L6.417 10.43a.882.882 0 0 1-.584.26.882.882 0 0 1-.583-.26.863.863 0 0 1 0-1.215l1.417-1.476Z"></path></svg>